<svg viewBox="0 0 32 32" xmlns="http://www.w3.org/2000/svg">
  <!-- Dark circular background -->
  <circle cx="16" cy="16" r="16" fill="#1a1a1a"/>
  
  <!-- Icon scaled down and centered with padding -->
  <g transform="translate(6, 5) scale(0.63)">
    <!-- Box body -->
    <rect x="5" y="15" width="22" height="14" rx="2" fill="none" stroke="#a3e635" stroke-width="2.2"/>
    <!-- Roof line -->
    <path d="M5 15 L16 22 L27 15" fill="none" stroke="#a3e635" stroke-width="2.2" stroke-linejoin="round" stroke-linecap="round"/>
    <!-- Large star -->
    <path d="M16 3 C16 8 19.5 10.5 24 10.5 C19.5 10.5 16 13 16 18 C16 13 12.5 10.5 8 10.5 C12.5 10.5 16 8 16 3 Z" fill="#a3e635"/>
    <!-- Small star -->
    <path d="M24 4 C24 6 25.5 7.5 27.5 7.5 C25.5 7.5 24 9 24 11 C24 9 22.5 7.5 20.5 7.5 C22.5 7.5 24 6 24 4 Z" fill="#a3e635" opacity="0.55"/>
  </g>
</svg>